<svg height="496pt" viewBox="0 0 496 496" width="496pt" xmlns="http://www.w3.org/2000/svg"><g fill="#f0bc5e"><path d="m112 344v-152h-80v208h160v-56zm0 0"/><path d="m304 80v72h80v136h80v-208zm0 0"/><path d="m336 416v-16l-64 40 64 40v-16h128v-48zm0 0"/><path d="m160 80v16l64-40-64-40v16h-128v48zm0 0"/></g><path d="m456 0h-144c-22.054688 0-40 17.945312-40 40v104h-48.808594c-3.71875-18.230469-19.871094-32-39.191406-32h-144c-22.054688 0-40 17.945312-40 40v304c0 22.054688 17.945312 40 40 40h144c22.054688 0 40-17.945312 40-40v-104h48.808594c3.71875 18.230469 19.871094 32 39.191406 32h144c22.054688 0 40-17.945312 40-40v-304c0-22.054688-17.945312-40-40-40zm-144 16h144c13.230469 0 24 10.769531 24 24v8h-192v-8c0-13.230469 10.769531-24 24-24zm-24 48h192v240h-88v-160h-104zm-40 192c-13.335938 0-25.878906-5.191406-35.3125-14.625l-81.375-81.375h233.375l-81.375 81.375c-9.433594 9.433594-21.976562 14.625-35.3125 14.625zm-46.625-3.3125c1.359375 1.359375 2.792969 2.625 4.25 3.847656l-85.625 70.511719v-155.734375zm18.402344 12.921875c8.71875 4.132813 18.285156 6.390625 28.222656 6.390625s19.503906-2.257812 28.222656-6.390625l85.480469 70.390625h-227.40625zm70.605468-9.074219c1.457032-1.222656 2.882813-2.488281 4.242188-3.847656l81.375-81.375v155.734375zm-250.382812-128.535156h144c10.414062 0 19.214844 6.710938 22.527344 16h-102.527344v16h-88v-8c0-13.230469 10.769531-24 24-24zm144 352h-144c-13.230469 0-24-10.769531-24-24v-24h192v24c0 13.230469-10.769531 24-24 24zm24-64h-192v-240h88v176h104zm248-48h-144c-10.414062 0-19.214844-6.710938-22.527344-16h134.527344v-16h-32v-16h88v24c0 13.230469-10.769531 24-24 24zm0 0"/><path d="m80 448h48v16h-48zm0 0"/><path d="m480 448h16v16h-16zm0 0"/><path d="m480 416h16v16h-16zm0 0"/><path d="m0 32h16v16h-16zm0 0"/><path d="m0 64h16v16h-16zm0 0"/></svg>